<?xml version="1.0" standalone="no"?>
<!DOCTYPE svg PUBLIC "-//W3C//DTD SVG 20010904//EN"
 "http://www.w3.org/TR/2001/REC-SVG-20010904/DTD/svg10.dtd">
<svg version="1.0" xmlns="http://www.w3.org/2000/svg"
 width="640.000000pt" height="640.000000pt" viewBox="0 0 640.000000 640.000000"
 preserveAspectRatio="xMidYMid meet">
<metadata>
Created by potrace 1.11, written by Peter Selinger 2001-2013
</metadata>
<g transform="translate(0.000000,640.000000) scale(0.100000,-0.100000)"
fill="#000000" stroke="none">
<path d="M3015 6174 c-16 -2 -70 -9 -120 -15 -413 -50 -822 -219 -1165 -483
-242 -186 -415 -393 -535 -641 -133 -274 -215 -614 -250 -1032 -15 -180 -15
-195 1 -228 21 -44 64 -68 115 -63 45 4 38 29 64 -232 22 -227 34 -310 49
-357 14 -40 13 -42 -11 -65 -39 -36 -89 -126 -117 -210 -38 -112 -37 -251 2
-363 92 -263 355 -433 616 -398 44 7 91 15 103 18 19 6 25 0 49 -46 140 -277
414 -598 656 -769 l68 -48 -82 -28 c-105 -37 -173 -97 -242 -215 -27 -46 -77
-131 -112 -189 -149 -250 -222 -433 -211 -536 4 -42 -2 -76 -28 -164 l-33
-111 66 3 65 3 17 58 c8 32 19 58 23 58 4 1 45 -18 90 -40 108 -53 218 -81
324 -81 l83 0 2 108 c4 178 0 215 -33 306 -17 48 -33 85 -35 83 -2 -2 5 -44
15 -93 36 -164 36 -191 2 -260 -25 -53 -33 -62 -62 -68 -83 -15 -307 70 -391
148 -46 42 -48 71 -17 172 53 171 338 652 408 689 42 21 154 36 245 33 l79 -3
17 -61 c44 -163 142 -268 293 -316 85 -27 249 -29 332 -4 160 47 273 164 320
330 l17 59 132 -6 c133 -6 211 -22 202 -41 -64 -144 -99 -294 -78 -340 8 -18
8 -32 -1 -55 -9 -24 -8 -48 5 -116 15 -78 16 -88 1 -123 -34 -81 -43 -138 -43
-291 l0 -153 104 5 c74 3 130 12 194 32 l90 28 58 -32 58 -31 278 0 279 0 59
29 c171 85 303 229 377 411 32 79 51 211 36 249 -6 17 -7 35 -2 42 21 34 0
171 -43 272 -95 226 -285 387 -528 448 -110 28 -287 23 -395 -11 -141 -44
-286 -141 -365 -244 -19 -25 -38 -45 -43 -46 -4 0 -51 17 -104 37 l-96 37 28
20 c189 139 364 312 514 512 58 78 129 183 156 233 72 132 59 122 140 104 181
-39 373 23 516 166 120 120 174 253 173 426 -1 130 -52 265 -135 360 -25 28
-28 38 -20 54 9 15 41 208 41 243 0 16 20 8 94 -37 111 -68 276 -144 339 -156
30 -6 71 -9 91 -5 42 8 83 53 92 101 19 102 -111 315 -374 614 l-109 124 -7
101 c-34 507 -210 973 -504 1337 -295 366 -839 653 -1392 734 -101 15 -433 28
-495 19z m-430 -576 c1 -2 7 -30 12 -63 l9 -60 8 50 c10 62 20 75 57 75 32 0
57 -35 45 -65 -9 -24 -40 -14 -47 15 -4 18 -7 10 -10 -28 -2 -28 -1 -52 4 -52
4 0 7 7 7 15 0 8 9 15 20 15 31 0 27 -47 -5 -62 -19 -8 -29 -8 -47 4 -18 12
-27 13 -41 4 -15 -9 -21 -7 -33 8 -12 17 -14 18 -14 3 0 -12 -8 -17 -26 -17
-19 0 -24 4 -20 18 2 9 7 44 11 77 4 33 9 63 12 68 4 6 52 2 58 -5z m-85 -13
c0 -8 -4 -15 -10 -15 -5 0 -10 -7 -10 -15 0 -8 5 -15 10 -15 6 0 10 -7 10 -15
0 -8 -4 -15 -10 -15 -5 0 -10 -16 -10 -35 0 -28 -4 -35 -20 -35 -14 0 -20 7
-20 23 -1 12 -3 48 -7 80 l-5 57 36 0 c25 0 36 -4 36 -15z m296 -5 c19 0 18
-20 -3 -37 -13 -10 -15 -16 -5 -19 17 -8 15 -34 -3 -34 -8 0 -15 -8 -15 -19 0
-13 9 -20 30 -24 22 -5 28 -11 24 -22 -5 -12 -14 -14 -38 -10 -74 15 -75 17
-55 105 14 67 18 73 35 66 9 -3 22 -6 30 -6z m-443 -21 c14 -22 1 -79 -26
-113 -21 -26 -26 -28 -48 -16 -87 45 -109 130 -34 130 19 0 37 5 40 11 10 15
56 7 68 -12z m591 -28 c16 -17 16 -25 6 -58 -11 -33 -39 -102 -46 -111 -7 -9
-44 11 -44 24 0 8 -5 14 -11 14 -15 0 -7 62 14 113 18 43 52 50 81 18z m-806
-88 c26 -59 28 -70 16 -83 -9 -9 -17 -11 -22 -5 -18 21 -63 136 -57 145 15 24
34 6 63 -57z m742 -848 c95 -56 88 -204 -13 -257 -40 -21 -58 -23 -362 -29
-176 -4 -363 -12 -415 -18 -111 -13 -324 -48 -369 -61 -29 -8 -31 -7 -31 19 0
29 21 158 40 249 11 50 12 51 58 61 193 41 437 59 777 57 262 -1 282 -2 315
-21z m334 -6 c10 -10 25 -107 32 -206 l7 -96 -119 7 c-65 4 -120 9 -122 11 -2
2 7 23 19 47 18 33 23 60 23 118 1 41 -3 89 -7 105 l-9 30 85 -5 c47 -3 88 -8
91 -11z m-67 -414 c274 -20 440 -40 688 -81 205 -34 450 -86 462 -98 3 -3 -4
-31 -16 -62 -41 -109 -24 -155 79 -210 86 -45 148 -98 190 -163 31 -49 91
-205 103 -268 l6 -32 -92 6 c-51 3 -96 9 -100 13 -5 4 19 10 52 14 62 7 76 21
47 45 -18 15 -202 105 -246 121 -32 11 -44 9 -150 -30 -63 -24 -173 -68 -245
-100 -122 -54 -136 -58 -232 -64 -114 -7 -141 -16 -196 -63 l-37 -33 -244 0
-244 0 -43 36 c-58 48 -67 51 -216 65 -115 11 -138 16 -223 54 -108 48 -251
105 -326 129 -50 16 -53 16 -105 -4 -70 -28 -207 -99 -225 -117 -24 -25 -16
-32 47 -39 35 -4 56 -10 48 -14 -19 -10 -169 -20 -169 -12 0 29 48 172 80 238
47 97 123 173 216 215 34 16 71 40 83 55 27 34 27 94 1 153 -26 56 -45 169
-36 215 7 34 9 36 49 37 23 1 94 5 157 9 158 11 594 3 837 -15z m-1107 -1026
c-35 -14 -190 -93 -190 -97 0 -27 96 -132 120 -132 24 0 20 31 -7 55 -27 24
-28 25 -9 40 13 10 43 15 88 15 l68 0 6 -41 c15 -92 91 -149 200 -149 79 0
120 26 154 97 19 41 30 52 48 53 28 0 73 -44 92 -90 10 -23 18 -30 34 -28 21
4 23 9 11 41 -5 13 -2 17 13 17 11 0 24 6 30 13 26 31 -52 89 -177 132 -66 22
-119 32 -291 54 l-65 9 90 1 c116 1 209 -13 299 -44 106 -38 106 -38 106 -28
0 16 -76 53 -152 73 -40 10 -61 19 -46 19 15 1 39 -4 55 -10 15 -7 87 -12 158
-13 101 -1 137 -5 161 -18 53 -29 57 -53 51 -300 -8 -342 -39 -450 -143 -503
-35 -18 -65 -21 -294 -25 -383 -8 -582 11 -623 59 -8 9 -33 72 -56 141 -62
186 -75 335 -45 517 9 54 22 101 28 106 31 21 123 35 296 45 8 0 4 -4 -10 -9z
m1860 -10 c-70 -18 -158 -64 -146 -76 3 -3 35 6 71 21 86 34 217 56 329 55
l91 -2 -70 -8 c-219 -27 -329 -58 -413 -114 -41 -28 -52 -41 -50 -58 2 -14 11
-23 26 -25 17 -3 22 -8 17 -20 -12 -31 -10 -36 10 -39 15 -2 28 10 49 46 27
46 59 71 90 71 7 0 21 -21 31 -46 26 -69 80 -104 160 -104 45 0 74 6 111 25
55 27 80 62 90 123 l7 42 64 0 c63 0 103 -12 103 -30 0 -5 -12 -21 -27 -34
-21 -20 -25 -28 -15 -38 9 -9 20 -6 47 14 38 27 85 84 85 104 0 10 -120 74
-190 102 -39 15 152 4 237 -14 l72 -15 6 -47 c3 -26 11 -69 17 -97 7 -27 12
-99 12 -160 0 -95 -5 -125 -33 -220 -40 -137 -78 -246 -88 -256 -15 -15 -126
-39 -236 -50 -133 -14 -573 -6 -632 11 -135 40 -173 150 -181 520 -6 245 -4
255 49 294 25 18 44 21 145 23 64 1 131 6 147 11 17 6 44 10 60 11 17 0 -2 -8
-45 -20z m-1656 -105 c20 -8 20 -32 1 -54 -14 -16 -13 -19 9 -34 51 -33 120
-16 139 34 9 22 17 30 32 28 32 -5 31 -51 -2 -88 -71 -79 -226 -50 -252 47
-17 59 16 89 73 67z m1995 -8 c33 -39 -38 -145 -97 -147 -57 -2 -98 3 -124 17
-55 28 -77 93 -38 114 16 9 22 6 35 -19 30 -59 100 -80 145 -43 20 16 21 19 6
31 -19 16 -21 47 -3 54 25 11 65 7 76 -7z m-893 -42 c61 -29 76 -63 86 -188
23 -315 68 -443 181 -520 99 -66 132 -71 492 -69 234 1 337 5 383 15 42 10 62
11 62 4 0 -6 -28 -60 -61 -121 -232 -418 -588 -761 -933 -900 -163 -65 -391
-77 -570 -31 -125 32 -312 122 -430 207 -179 128 -390 353 -526 559 -61 93
-165 288 -157 296 2 2 19 -1 37 -6 94 -27 459 -38 684 -20 102 8 128 13 182
40 143 70 199 208 222 541 9 129 24 163 84 192 46 23 217 23 264 1z m-2014
-35 c33 -23 97 -58 142 -79 l82 -38 13 -68 c22 -111 97 -362 135 -452 42 -100
45 -97 -104 -97 -124 0 -173 15 -267 82 -70 49 -132 129 -165 212 -29 75 -32
231 -5 309 17 47 92 172 103 172 3 0 32 -19 66 -41z m3891 -78 l42 -84 0 -116
c0 -109 -2 -120 -32 -184 -42 -88 -83 -140 -156 -193 -75 -56 -165 -84 -266
-84 -42 0 -86 3 -99 6 -29 8 -25 28 23 129 31 65 65 192 112 416 l15 77 67 26
c36 14 100 48 141 75 90 58 91 58 153 -68z m-627 -1589 c6 -4 16 -17 23 -29
19 -37 -3 -68 -68 -92 -71 -26 -133 -66 -193 -125 -26 -25 -56 -46 -68 -46
-28 0 -60 35 -60 65 0 61 157 181 300 228 23 8 54 8 66 -1z m-1823 -163 c18
-8 29 -26 40 -69 20 -70 80 -149 140 -184 74 -43 157 -59 287 -54 144 6 217
34 285 110 36 41 85 136 85 167 0 9 50 34 56 28 9 -9 -36 -131 -65 -176 -99
-153 -268 -225 -476 -202 -165 19 -282 99 -346 234 -27 58 -49 157 -36 157 3
0 17 -5 30 -11z m447 -92 c133 0 179 4 238 20 39 11 72 18 72 16 0 -15 -43
-83 -67 -105 -53 -51 -118 -72 -234 -76 -167 -6 -253 27 -316 122 -50 73 -46
76 55 48 76 -22 107 -25 252 -25z m1032 -64 c24 -22 23 -62 -4 -90 -25 -27
-45 -29 -76 -7 -44 30 -15 114 40 114 12 0 30 -7 40 -17z m515 -138 c112 -74
61 -245 -73 -245 -111 0 -171 127 -102 215 42 54 118 67 175 30z m-289 -203
c15 -43 67 -98 116 -121 50 -25 140 -28 190 -7 48 20 100 70 121 116 l18 40
214 0 213 0 0 -27 c0 -76 -65 -235 -127 -312 -238 -298 -643 -347 -944 -115
-123 94 -239 302 -239 428 l0 26 214 0 214 0 10 -28z m-470 -229 c46 -94 81
-144 149 -214 l64 -67 -49 -16 c-27 -9 -75 -17 -105 -18 -68 -2 -86 11 -115
87 -18 47 -20 63 -11 117 14 90 30 168 34 168 3 0 17 -26 33 -57z"/>
<path d="M2891 5469 c-14 -42 -7 -49 9 -9 7 17 10 33 8 36 -3 3 -11 -9 -17
-27z"/>
<path d="M2416 4504 c-31 -30 -9 -84 34 -84 24 0 50 26 50 50 0 24 -26 50 -50
50 -10 0 -26 -7 -34 -16z m52 -37 c2 -12 -3 -17 -17 -17 -12 0 -21 6 -21 13 0
31 32 34 38 4z"/>
<path d="M2736 4504 c-19 -19 -21 -58 -3 -71 27 -21 48 -22 67 -3 25 25 25 45
0 70 -24 24 -43 25 -64 4z m51 -30 c8 -21 -13 -42 -28 -27 -13 13 -5 43 11 43
6 0 13 -7 17 -16z"/>
<path d="M2112 4494 c-30 -21 -29 -59 3 -80 23 -15 27 -15 50 0 32 21 33 59 3
80 -12 9 -25 16 -28 16 -3 0 -16 -7 -28 -16z m45 -30 c8 -21 -13 -42 -28 -27
-13 13 -5 43 11 43 6 0 13 -7 17 -16z"/>
<path d="M1812 4454 c-37 -26 -20 -94 24 -94 19 0 54 36 54 55 0 16 -34 55
-48 55 -4 0 -18 -7 -30 -16z m43 -40 c0 -10 -8 -20 -17 -22 -18 -3 -26 27 -11
42 12 11 28 0 28 -20z"/>
<path d="M3112 4494 c-30 -21 -29 -59 3 -80 23 -15 27 -15 50 0 32 21 33 59 3
80 -12 9 -25 16 -28 16 -3 0 -16 -7 -28 -16z m45 -30 c8 -21 -13 -42 -28 -27
-13 13 -5 43 11 43 6 0 13 -7 17 -16z"/>
<path d="M3098 2458 c-45 -26 -57 -54 -34 -77 16 -15 20 -14 56 7 21 12 53 22
70 22 17 0 49 -10 70 -22 36 -21 40 -22 56 -7 23 24 10 52 -35 77 -52 30 -132
29 -183 0z"/>
<path d="M2540 1809 c-28 -52 14 -88 159 -138 181 -62 361 -86 589 -78 182 6
302 27 457 78 125 42 169 67 173 102 4 35 -13 57 -45 57 -14 0 -69 -16 -122
-36 -155 -58 -284 -84 -461 -91 -95 -3 -191 -1 -248 6 -113 14 -299 61 -377
95 -71 32 -110 33 -125 5z"/>
</g>
</svg>
